<mxfile host="app.diagrams.net" modified="2023-12-01T08:54:59.577Z" agent="Mozilla/5.0 (Macintosh; Intel Mac OS X 10_15_7) AppleWebKit/537.36 (KHTML, like Gecko) Chrome/119.0.0.0 Safari/537.36" version="22.1.5" etag="O8JJ8vE4YmQVzSaIJLiq" type="github">
  <diagram name="第 1 页" id="qT0SyPVcbaf3i2D0Xd-S">
    <mxGraphModel>
      <root>
        <mxCell id="0" />
        <mxCell id="1" parent="0" />
      </root>
    </mxGraphModel>
  </diagram>
</mxfile>
